<?xml version="1.0" standalone="no"?>
<!DOCTYPE svg PUBLIC "-//W3C//DTD SVG 20010904//EN"
 "http://www.w3.org/TR/2001/REC-SVG-20010904/DTD/svg10.dtd">
<svg version="1.0" xmlns="http://www.w3.org/2000/svg"
 width="626.000000pt" height="619.000000pt" viewBox="0 0 626.000000 619.000000"
 preserveAspectRatio="xMidYMid meet">

<g transform="translate(0.000000,619.000000) scale(0.100000,-0.100000)"
fill="#000000" stroke="none">
<path d="M2802 6165 c-149 -15 -262 -32 -269 -39 -3 -2 -9 -139 -13 -303 -6
-202 -13 -317 -23 -356 -8 -32 -16 -60 -19 -62 -15 -15 -358 82 -513 144 l-94
38 -83 -44 c-463 -248 -873 -666 -1124 -1148 l-52 -100 39 -100 c42 -104 96
-282 122 -397 l15 -68 -37 -10 c-78 -20 -186 -29 -435 -34 -142 -2 -259 -6
-261 -8 -7 -7 -35 -258 -46 -409 -17 -238 -3 -535 37 -776 l6 -42 282 1 c245
1 417 -10 434 -27 12 -12 -104 -390 -144 -466 -15 -29 -14 -33 41 -137 190
-359 467 -684 791 -928 112 -84 282 -192 386 -245 l57 -29 48 21 c92 39 249
91 383 125 74 19 138 34 141 34 4 0 11 -19 17 -42 6 -24 14 -54 17 -68 4 -14
10 -159 15 -323 4 -164 10 -300 12 -303 8 -8 211 -33 363 -45 242 -19 666 -1
837 36 l26 6 -1 277 c-1 248 11 423 29 441 9 9 288 -76 410 -125 l118 -47 100
51 c226 114 474 298 671 496 138 139 224 244 334 406 82 121 191 310 191 330
0 6 -20 62 -44 123 -157 399 -224 889 -185 1354 9 112 43 340 51 348 2 2 39
-6 83 -17 66 -16 128 -21 362 -26 166 -4 286 -11 291 -17 6 -5 18 -73 28 -150
27 -199 25 -755 -2 -923 l-19 -114 -250 2 c-251 1 -475 -15 -475 -33 0 -6 22
-7 58 -3 152 18 334 25 503 19 l187 -6 6 29 c38 174 56 593 37 839 -12 146
-37 355 -45 362 -1 2 -140 8 -307 13 -313 9 -434 25 -446 56 -11 30 69 306
139 477 l40 97 -48 88 c-135 250 -285 452 -484 653 -203 204 -398 351 -649
490 -101 56 -116 61 -140 52 -172 -72 -274 -108 -382 -140 -108 -31 -132 -35
-139 -23 -17 27 -25 187 -23 437 2 231 1 252 -15 257 -122 38 -694 57 -940 31z
m688 -26 c52 -5 129 -14 171 -20 l77 -11 5 -322 c2 -176 8 -331 12 -342 6 -20
2 -23 -47 -34 -206 -45 -319 -54 -638 -55 -257 0 -337 3 -435 19 -66 10 -123
21 -127 25 -4 3 0 33 9 66 10 43 17 142 21 347 4 157 9 288 12 291 9 9 283 39
420 47 149 8 374 4 520 -11z m1106 -767 c381 -250 718 -618 911 -997 l46 -91
-40 -104 c-57 -146 -97 -275 -127 -412 -27 -120 -55 -289 -57 -343 l-1 -30 -8
30 c-5 17 -18 80 -30 140 -43 221 -148 489 -270 691 -118 194 -307 415 -480
559 -279 233 -641 405 -995 475 -63 12 -83 19 -65 23 14 3 89 17 167 31 206
38 488 126 611 190 25 13 32 11 123 -35 53 -27 149 -84 215 -127z m-2574 104
c192 -74 471 -143 653 -162 80 -8 75 -12 -70 -44 -135 -31 -307 -91 -440 -154
-680 -324 -1144 -957 -1250 -1706 l-12 -85 -7 60 c-39 325 -91 549 -179 775
l-40 105 49 94 c68 131 226 367 322 481 159 190 391 397 587 525 88 58 255
155 266 155 4 0 58 -20 121 -44z m1399 -271 c228 -34 412 -92 624 -195 646
-314 1086 -932 1175 -1650 15 -123 12 -417 -5 -539 -66 -461 -272 -877 -595
-1202 -534 -536 -1309 -750 -2035 -560 -721 189 -1297 747 -1501 1456 -52 178
-75 326 -81 521 -12 367 53 672 212 999 116 238 241 410 428 592 365 353 800
548 1327 597 84 8 347 -3 451 -19z m-2626 -1517 c16 -68 36 -244 47 -401 15
-243 -5 -553 -53 -785 l-10 -52 -72 7 c-40 5 -197 8 -349 8 l-278 0 -5 25
c-37 170 -55 570 -36 813 14 175 36 345 46 355 4 4 133 10 288 14 191 4 301
11 342 21 33 8 63 15 67 16 4 0 10 -9 13 -21z m135 -973 c148 -842 789 -1537
1622 -1755 60 -16 144 -34 186 -41 l77 -13 -110 -13 c-221 -27 -479 -91 -674
-168 -49 -19 -94 -35 -101 -35 -20 0 -232 124 -341 199 -356 244 -651 579
-864 976 l-48 90 46 122 c76 199 132 431 162 676 8 67 16 126 17 132 0 5 3 -6
5 -25 2 -19 12 -84 23 -145z m4441 -220 c28 -143 87 -345 138 -470 l40 -100
-51 -95 c-123 -232 -257 -409 -468 -621 -220 -221 -438 -382 -688 -508 l-60
-30 -110 44 c-202 81 -447 145 -672 175 -85 12 -114 20 -69 20 52 0 266 51
397 95 465 155 873 472 1152 895 135 205 261 511 310 750 11 58 24 116 27 130
4 16 10 -10 19 -75 7 -55 23 -149 35 -210z m-1896 -1659 c120 -16 275 -43 282
-50 2 -2 -1 -41 -7 -87 -5 -46 -10 -203 -10 -350 l0 -266 -132 -19 c-190 -27
-701 -27 -903 0 -77 10 -144 22 -150 28 -6 5 -12 122 -16 286 -5 212 -10 294
-23 350 -10 40 -16 75 -14 77 5 5 224 35 328 45 132 12 501 4 645 -14z"/>
<path d="M3049 5827 c-39 -26 -79 -97 -79 -142 0 -45 40 -116 79 -142 25 -17
48 -23 91 -23 43 0 66 6 91 23 39 26 79 97 79 142 0 45 -40 116 -79 142 -25
17 -48 23 -91 23 -43 0 -66 -6 -91 -23z"/>
<path d="M2970 5173 c-428 -41 -775 -170 -1090 -405 -105 -78 -292 -258 -373
-358 -538 -667 -609 -1605 -178 -2343 313 -535 846 -901 1461 -1002 52 -9 167
-18 255 -22 1312 -48 2331 1124 2109 2427 -110 644 -540 1212 -1136 1500 -321
155 -728 234 -1048 203z m279 -149 c22 -5 31 -12 29 -23 -3 -13 -15 -15 -70
-13 l-66 4 -4 -61 -3 -61 63 0 c55 0 62 -2 62 -20 0 -18 -7 -20 -65 -20 l-65
0 0 -75 c0 -71 -1 -75 -22 -75 l-23 0 6 172 c4 95 7 174 8 176 2 5 120 2 150
-4z m-462 -196 c73 -108 99 -154 90 -160 -22 -14 -32 -8 -60 37 -26 40 -32 44
-55 38 -127 -31 -116 -25 -124 -78 -6 -43 -19 -64 -40 -65 -12 0 -10 37 12
192 27 192 26 188 53 188 17 -1 44 -34 124 -152z m962 94 c46 -23 72 -60 78
-113 23 -199 -195 -301 -311 -145 -42 55 -19 184 42 239 51 46 121 53 191 19z
m-1434 -253 c77 -125 86 -143 73 -156 -14 -13 -23 -2 -83 94 -38 59 -73 113
-78 118 -5 6 -6 -34 -1 -96 4 -69 3 -108 -4 -113 -5 -3 -53 19 -106 49 -53 30
-94 49 -90 42 5 -6 39 -60 76 -120 65 -101 75 -132 42 -125 -7 2 -54 67 -103
145 l-89 142 22 15 c19 12 27 12 42 2 11 -7 54 -32 97 -55 l77 -43 -6 112 c-7
114 -3 129 32 130 6 0 50 -63 99 -141z m1871 29 c72 -54 94 -81 94 -117 0 -50
-41 -91 -92 -91 -25 0 -37 -4 -33 -10 4 -6 4 -49 0 -95 -7 -80 -8 -84 -27 -74
-19 10 -20 17 -13 94 6 76 5 85 -14 104 -12 12 -25 21 -30 21 -5 0 -28 -25
-51 -56 -37 -50 -44 -54 -57 -41 -13 13 -4 30 84 151 54 74 101 136 104 136 4
0 19 -10 35 -22z m-938 -98 c357 -38 668 -186 917 -436 168 -168 288 -360 359
-574 61 -184 71 -251 71 -480 0 -228 -10 -296 -70 -476 -260 -782 -1112 -1207
-1894 -945 -443 149 -796 501 -944 943 -57 171 -72 268 -72 473 0 210 13 294
67 465 212 663 880 1102 1566 1030z m-1373 -308 c90 -86 102 -102 89 -113 -17
-14 -22 -10 -176 140 -67 65 -85 88 -77 98 14 16 25 8 164 -125z m2689 72 c8
-21 5 -25 -55 -70 l-50 -39 28 -6 c15 -4 62 -7 103 -8 65 -1 77 -4 89 -23 l13
-21 -110 7 -109 6 -12 -62 c-34 -181 -31 -173 -51 -152 -18 18 -18 22 0 109
29 136 30 134 -44 76 -55 -44 -65 -49 -76 -36 -7 9 -10 19 -6 23 18 18 262
210 267 211 4 1 10 -6 13 -15z m-2881 -319 c64 -37 117 -70 117 -73 0 -4 -4
-13 -9 -20 -6 -10 -24 -4 -77 27 l-68 40 -39 -67 c-22 -37 -41 -72 -44 -79 -2
-6 25 -28 61 -48 69 -38 71 -41 57 -63 -6 -11 -43 6 -160 73 -134 77 -150 89
-141 105 10 18 13 17 69 -15 33 -19 64 -35 69 -35 8 0 70 98 90 142 2 3 -26
23 -62 43 -59 33 -65 39 -55 56 10 20 11 20 42 1 18 -11 85 -50 150 -87z
m3213 -217 c7 -24 -7 -39 -193 -206 -76 -68 -82 -71 -88 -50 -6 17 0 29 30 57
l38 34 -23 69 -23 68 -53 0 c-42 0 -55 4 -63 19 -6 10 -7 21 -4 25 3 3 89 6
189 6 180 0 183 0 190 -22z m-3525 -616 c53 72 60 75 34 16 -14 -32 -22 -58
-20 -58 3 0 28 11 55 25 28 14 50 23 50 21 0 -3 -20 -20 -45 -39 l-45 -35 31
-6 c18 -3 46 -7 63 -7 19 -1 7 -6 -34 -13 l-65 -11 48 -33 c26 -18 47 -35 47
-37 0 -2 -25 7 -55 20 -30 14 -55 22 -55 19 0 -2 9 -23 21 -45 27 -55 18 -59
-19 -9 -28 38 -30 39 -36 18 -3 -13 -6 -41 -7 -63 -1 -35 -3 -32 -13 25 l-11
65 -33 -47 c-18 -27 -35 -48 -37 -48 -2 0 7 25 20 55 14 30 22 55 19 55 -2 0
-23 -9 -45 -21 -55 -27 -59 -18 -9 19 l40 29 -31 7 c-17 3 -46 7 -63 7 -20 1
-8 6 33 13 l63 11 -46 33 c-25 18 -46 35 -46 37 0 2 25 -7 55 -20 30 -14 55
-22 55 -19 0 2 -9 23 -21 45 -27 55 -18 59 19 9 l29 -40 7 31 c3 17 7 46 7 63
1 18 6 4 11 -34 l10 -64 19 26z m3541 18 l3 -45 34 47 c37 52 51 57 28 11 -8
-15 -18 -38 -21 -51 l-7 -22 55 24 c31 14 56 24 56 22 0 -1 -21 -18 -47 -36
-40 -29 -44 -35 -27 -41 10 -4 37 -8 59 -10 36 -1 33 -3 -24 -13 l-65 -11 42
-28 c23 -15 42 -30 42 -33 0 -6 -1 -6 -62 20 l-37 16 25 -58 c22 -50 22 -54 4
-30 -11 14 -29 37 -40 50 l-19 23 -2 -35 c0 -19 -5 -46 -9 -60 -7 -21 -8 -19
-9 17 -2 75 -10 79 -47 27 -39 -55 -42 -53 -14 12 11 26 19 48 17 50 -1 2 -26
-8 -55 -21 -29 -13 -52 -22 -52 -20 0 2 21 19 46 37 51 37 45 45 -36 49 -43 1
-43 2 20 11 l64 10 -23 19 c-12 10 -35 28 -49 39 -24 18 -20 18 31 -4 31 -14
57 -20 57 -15 0 5 -9 27 -20 49 -29 58 -25 59 18 4 l37 -49 3 54 c4 63 19 57
24 -9z m-3529 -451 c106 -15 103 -29 -23 -112 -55 -37 -102 -67 -105 -67 -15
0 -1 31 21 47 24 17 25 23 19 66 -7 45 -9 47 -46 53 -25 4 -39 12 -39 22 0 16
-1 16 173 -9z m3637 7 c0 -8 -15 -17 -35 -20 -29 -6 -36 -12 -45 -44 -14 -52
-13 -58 15 -76 22 -15 37 -52 17 -44 -38 15 -201 136 -202 149 0 13 21 19 103
31 135 20 147 21 147 4z m-278 -241 c-7 -14 -12 -27 -12 -29 0 -2 41 -19 91
-37 82 -31 111 -50 96 -65 -2 -3 -44 11 -93 30 -48 20 -93 36 -100 36 -6 0
-15 -11 -18 -25 -4 -14 -13 -25 -21 -25 -8 0 -15 1 -15 3 0 2 14 38 50 131 8
22 14 26 22 18 9 -9 8 -18 0 -37z m-3209 -33 c31 -78 32 -82 13 -82 -8 0 -17
11 -20 25 -8 31 -12 31 -116 -9 -47 -19 -88 -32 -92 -29 -20 11 -1 24 87 59
100 40 98 37 78 92 -3 6 1 12 9 12 9 0 26 -27 41 -68z m82 -182 c4 -6 -12 -40
-34 -75 l-40 -65 78 0 c116 0 114 -16 -10 -86 -70 -40 -103 -54 -111 -46 -7 7
14 24 68 56 l79 46 -72 0 c-40 0 -73 4 -73 8 0 4 15 32 34 62 19 30 33 56 31
59 -2 2 -36 -15 -75 -38 -77 -44 -90 -48 -90 -28 0 12 175 116 197 117 6 0 15
-5 18 -10z m3079 -21 c14 -11 26 -30 26 -41 0 -20 4 -20 65 -14 43 4 65 3 65
-4 0 -15 -45 -30 -89 -30 -23 0 -44 -6 -52 -16 -11 -14 -9 -19 11 -35 14 -10
33 -21 43 -25 18 -6 22 -19 8 -28 -5 -3 -54 20 -109 51 l-100 58 19 37 c19 37
53 68 75 68 6 0 23 -9 38 -21z m-109 -271 c63 -19 105 -37 105 -45 0 -15 -19
-17 -53 -4 -20 8 -27 4 -50 -24 -31 -39 -33 -52 -13 -81 9 -13 11 -25 6 -34
-5 -8 -11 -12 -13 -10 -20 22 -126 214 -121 221 8 14 28 11 139 -23z m-2805
-134 c-57 -110 -64 -119 -80 -109 -5 3 -3 19 7 39 15 33 15 35 -12 70 -22 29
-32 35 -49 30 -31 -11 -59 -10 -62 1 -5 14 228 95 241 83 7 -6 -9 -45 -45
-114z m2641 -128 c69 -7 79 -10 68 -22 -10 -12 -27 -13 -83 -8 l-70 7 32 -39
c35 -42 39 -54 19 -54 -20 0 -169 168 -156 176 6 3 28 -10 49 -31 l38 -37 -5
66 c-4 48 -2 70 8 82 12 15 14 8 17 -58 l3 -75 80 -7z m-2361 3 c0 -14 -100
-138 -120 -149 -38 -20 -102 2 -85 29 5 9 10 10 18 2 27 -27 56 -11 113 63 52
67 74 84 74 55z m2124 -135 c67 -45 95 -69 88 -76 -7 -7 -20 -4 -40 8 -30 17
-31 17 -70 -10 -38 -26 -40 -30 -31 -59 8 -28 -2 -59 -15 -46 -9 9 -65 232
-60 240 10 17 30 8 128 -57z m-1934 11 c0 -2 -6 -32 -14 -67 -8 -35 -20 -89
-26 -121 -14 -67 -35 -72 -35 -8 0 38 -4 44 -36 63 l-37 21 -29 -21 c-22 -15
-33 -18 -41 -10 -14 14 182 160 204 151 7 -3 14 -7 14 -8z m1679 -122 c-1 -62
3 -99 14 -125 14 -30 14 -37 3 -41 -9 -4 -20 9 -32 34 -11 25 -41 59 -82 91
-45 36 -60 53 -51 59 14 8 21 4 79 -45 l35 -30 3 64 c3 54 12 79 30 80 2 0 2
-39 1 -87z m-1529 28 c5 -11 10 -43 10 -71 l0 -52 53 46 c32 27 57 42 65 37 8
-5 -9 -26 -52 -64 -41 -36 -69 -70 -76 -92 -6 -19 -18 -35 -26 -35 -18 0 -18
12 0 55 8 18 13 42 11 52 -2 10 -6 46 -9 81 -6 63 4 80 24 43z m1290 -73 c0
-8 -13 -13 -31 -14 -56 -2 -99 -41 -99 -90 0 -58 63 -114 112 -99 41 13 48 23
36 56 -8 24 -14 28 -34 23 -17 -4 -24 -2 -24 9 0 14 54 32 70 22 4 -3 13 -25
19 -51 14 -53 5 -66 -61 -84 -78 -22 -143 34 -143 123 0 43 4 52 37 83 30 27
46 34 78 34 25 0 40 -5 40 -12z m-958 -133 c21 -140 21 -146 3 -139 -8 3 -17
21 -21 40 -6 33 -11 37 -70 49 -27 5 -34 2 -50 -24 -13 -20 -24 -27 -33 -22
-18 11 115 213 138 209 12 -2 20 -30 33 -113z m661 54 c36 -27 53 -91 38 -141
-16 -51 -53 -78 -108 -78 -104 0 -151 134 -73 211 36 37 103 40 143 8z m-389
-46 l28 -57 20 35 c12 19 27 44 35 57 13 22 33 30 33 13 0 -5 -16 -38 -36 -72
-20 -37 -38 -84 -41 -111 -8 -68 -33 -66 -33 2 0 33 -8 67 -24 98 -34 68 -40
92 -24 92 8 0 26 -26 42 -57z"/>
<path d="M2667 4893 c-16 -78 -18 -133 -7 -133 17 0 100 22 100 27 0 2 -20 33
-44 69 -43 64 -44 65 -49 37z"/>
<path d="M3620 4893 c-67 -34 -101 -143 -65 -212 24 -48 107 -69 159 -42 52
28 91 150 64 200 -31 57 -103 82 -158 54z"/>
<path d="M4124 4619 c-40 -55 -40 -53 18 -84 37 -21 51 -19 77 9 30 32 23 65
-23 100 l-34 26 -38 -51z"/>
<path d="M2865 4544 c-314 -58 -561 -187 -783 -406 -346 -343 -497 -834 -403
-1309 116 -585 577 -1042 1159 -1148 150 -28 260 -33 393 -21 189 18 359 65
519 145 722 362 1016 1228 659 1947 -199 403 -561 684 -1009 783 -107 24 -427
30 -535 9z m420 -209 c262 -39 487 -150 679 -334 225 -216 354 -493 381 -822
l6 -76 -36 -31 c-127 -104 -283 -133 -790 -147 -233 -6 -343 -18 -386 -39 -22
-11 -31 -11 -51 0 -39 20 -177 33 -488 44 -418 15 -531 35 -655 118 l-70 47
-3 65 c-2 36 4 106 12 156 113 661 741 1118 1401 1019z m-1445 -1229 c60 -57
119 -104 153 -120 102 -50 400 -96 627 -96 69 0 181 -5 249 -10 103 -8 135
-15 185 -38 60 -28 61 -28 91 -11 63 37 144 49 420 58 262 10 389 23 545 57
119 26 172 59 313 193 l67 64 0 -49 c0 -77 -28 -291 -50 -381 -39 -161 -96
-264 -223 -400 -56 -59 -157 -123 -196 -123 -9 0 -50 -30 -91 -66 -229 -200
-476 -299 -775 -311 -334 -13 -651 103 -885 323 -30 28 -66 55 -80 59 -94 28
-171 92 -267 221 -98 132 -140 253 -168 474 -15 124 -24 250 -17 250 3 0 49
-42 102 -94z"/>
<path d="M1947 2509 c32 -54 149 -158 210 -187 56 -26 64 -27 228 -27 94 0
249 4 346 9 164 8 180 8 245 -12 38 -12 85 -32 104 -45 l34 -24 43 28 c84 53
152 63 346 53 94 -5 251 -8 347 -8 198 0 220 6 318 83 47 38 146 150 138 158
-2 2 -29 -12 -61 -32 -66 -39 -146 -71 -214 -85 -75 -16 -276 -30 -421 -30
-160 0 -220 -9 -379 -55 l-120 -34 -73 25 c-130 44 -254 64 -400 64 -171 0
-386 17 -463 36 -33 9 -102 37 -153 64 l-92 49 17 -30z"/>
<path d="M4713 3803 c-18 -2 -33 -5 -33 -7 0 -13 33 -96 39 -96 3 0 35 25 69
55 l63 55 -53 -2 c-29 0 -68 -3 -85 -5z"/>
<path d="M1318 2729 c2 -16 8 -32 13 -34 7 -5 93 45 87 50 -2 1 -26 5 -54 8
l-50 6 4 -30z"/>
<path d="M4863 2753 c-24 -2 -43 -7 -43 -11 0 -9 66 -52 80 -52 5 0 10 9 10
19 0 11 3 26 6 35 3 9 2 15 -2 14 -5 -1 -28 -3 -51 -5z"/>
<path d="M4625 2276 c-33 -33 -32 -39 10 -59 45 -21 41 -22 52 11 12 33 7 49
-18 63 -15 8 -24 5 -44 -15z"/>
<path d="M4501 2003 c33 -57 36 -58 58 -32 11 13 20 27 21 31 0 5 -84 38 -98
38 -2 0 6 -17 19 -37z"/>
<path d="M1743 1973 c-24 -8 -43 -20 -43 -27 0 -13 38 -52 43 -45 11 15 47 82
45 84 -2 1 -22 -4 -45 -12z"/>
<path d="M4090 1665 c0 -14 23 -95 27 -95 9 0 53 33 53 40 0 4 -18 19 -40 34
-22 14 -40 24 -40 21z"/>
<path d="M2161 1591 l-34 -28 31 -22 c34 -24 33 -25 47 47 8 39 0 40 -44 3z"/>
<path d="M2661 1387 c-25 -40 -27 -57 -7 -57 8 0 21 -3 30 -6 13 -5 16 1 16
32 0 61 -14 72 -39 31z"/>
<path d="M3305 1403 c-51 -12 -72 -60 -55 -123 12 -44 38 -63 83 -62 57 2 86
53 67 121 -14 53 -47 75 -95 64z"/>
<path d="M435 3226 c-37 -17 -80 -62 -94 -99 -49 -129 86 -265 216 -216 40 15
91 67 104 107 43 132 -100 264 -226 208z"/>
<path d="M3085 665 c-104 -37 -145 -164 -82 -255 34 -50 81 -72 149 -68 71 5
119 39 143 103 52 135 -76 269 -210 220z"/>
<path d="M5680 3218 c-73 -38 -107 -108 -90 -185 32 -139 211 -178 298 -65 23
30 27 45 27 101 0 80 -26 123 -89 152 -54 25 -93 24 -146 -3z"/>
</g>
</svg>
